<svg
  width="26"
  height="26"
  viewBox="0 0 26 26"
  fill="none"
  xmlns="http://www.w3.org/2000/svg"
>
  <path
    d="M23.4507 1.94103C23.4507 2.90259 22.6706 3.6821 21.7083 3.6821C20.746 3.6821 19.9659 2.90259 19.9659 1.94103C19.9659 0.979456 20.746 0.199951 21.7083 0.199951C22.6706 0.199951 23.4507 0.979456 23.4507 1.94103Z"
    fill="url(#paint0_linear_8021_9079)"
  />
  <path
    d="M23.4507 1.94103C23.4507 2.90259 22.6706 3.6821 21.7083 3.6821C20.746 3.6821 19.9659 2.90259 19.9659 1.94103C19.9659 0.979456 20.746 0.199951 21.7083 0.199951C22.6706 0.199951 23.4507 0.979456 23.4507 1.94103Z"
    fill="black"
  />
  <path
    d="M17.5265 3.6821C17.5265 4.64367 16.7464 5.42317 15.7841 5.42317C14.8218 5.42317 14.0417 4.64367 14.0417 3.6821C14.0417 2.72053 14.8218 1.94103 15.7841 1.94103C16.7464 1.94103 17.5265 2.72053 17.5265 3.6821Z"
    fill="url(#paint1_linear_8021_9079)"
  />
  <path
    d="M17.5265 3.6821C17.5265 4.64367 16.7464 5.42317 15.7841 5.42317C14.8218 5.42317 14.0417 4.64367 14.0417 3.6821C14.0417 2.72053 14.8218 1.94103 15.7841 1.94103C16.7464 1.94103 17.5265 2.72053 17.5265 3.6821Z"
    fill="black"
  />
  <path
    fill-rule="evenodd"
    clip-rule="evenodd"
    d="M7.57564 11.9619C7.57564 14.9863 9.06086 17.6641 11.3423 19.3068C12.7063 18.0852 13.5646 16.3111 13.5646 14.3367V9.45927C13.5646 8.72466 14.0605 8.08251 14.7717 7.89631L23.68 5.56385C24.7049 5.2955 25.7068 6.06813 25.7068 7.12681L25.7068 13.0615C25.7068 20.0967 19.9992 25.8 12.9585 25.8L12.9377 25.7999C5.89705 25.7999 0.189453 20.0967 0.189453 13.0615V8.96575C0.189453 8.22841 0.689023 7.5846 1.40368 7.40095L5.55593 6.3339C6.57909 6.07097 7.57564 6.84306 7.57564 7.89871V11.9619ZM2.03742 13.0615C2.03742 15.5128 2.84783 17.775 4.21553 19.5951C4.85302 20.4435 5.82623 21.0087 6.88741 21.0087C7.89761 21.0087 8.85542 20.7846 9.71372 20.3833C7.28002 18.3854 5.72768 15.3548 5.72768 11.9619V8.1964L2.03742 9.14472V13.0615Z"
    fill="url(#paint2_linear_8021_9079)"
  />
  <path
    fill-rule="evenodd"
    clip-rule="evenodd"
    d="M7.57564 11.9619C7.57564 14.9863 9.06086 17.6641 11.3423 19.3068C12.7063 18.0852 13.5646 16.3111 13.5646 14.3367V9.45927C13.5646 8.72466 14.0605 8.08251 14.7717 7.89631L23.68 5.56385C24.7049 5.2955 25.7068 6.06813 25.7068 7.12681L25.7068 13.0615C25.7068 20.0967 19.9992 25.8 12.9585 25.8L12.9377 25.7999C5.89705 25.7999 0.189453 20.0967 0.189453 13.0615V8.96575C0.189453 8.22841 0.689023 7.5846 1.40368 7.40095L5.55593 6.3339C6.57909 6.07097 7.57564 6.84306 7.57564 7.89871V11.9619ZM2.03742 13.0615C2.03742 15.5128 2.84783 17.775 4.21553 19.5951C4.85302 20.4435 5.82623 21.0087 6.88741 21.0087C7.89761 21.0087 8.85542 20.7846 9.71372 20.3833C7.28002 18.3854 5.72768 15.3548 5.72768 11.9619V8.1964L2.03742 9.14472V13.0615Z"
    fill="black"
  />
  <defs>
    <linearGradient
      id="paint0_linear_8021_9079"
      x1="16.196"
      y1="8.06039"
      x2="14.5608"
      y2="23.1274"
      gradientUnits="userSpaceOnUse"
    >
      <stop stop-color="white" />
      <stop offset="1" stop-color="#2E2E2E" />
    </linearGradient>
    <linearGradient
      id="paint1_linear_8021_9079"
      x1="16.196"
      y1="8.06039"
      x2="14.5608"
      y2="23.1274"
      gradientUnits="userSpaceOnUse"
    >
      <stop stop-color="white" />
      <stop offset="1" stop-color="#2E2E2E" />
    </linearGradient>
    <linearGradient
      id="paint2_linear_8021_9079"
      x1="16.196"
      y1="8.06039"
      x2="14.5608"
      y2="23.1274"
      gradientUnits="userSpaceOnUse"
    >
      <stop stop-color="white" />
      <stop offset="1" stop-color="#2E2E2E" />
    </linearGradient>
  </defs>
</svg>
